<svg id="Layer_1" data-name="Layer 1" 
    xmlns="http://www.w3.org/2000/svg" viewBox="0 300 949.22 828.87">
    <defs>
        <style>.cls-1,.cls-14,.cls-16,.cls-3{fill:none;}.cls-1,.cls-11{stroke:#d989bc;}.cls-1,.cls-11,.cls-14,.cls-16,.cls-3,.cls-5,.cls-6{stroke-miterlimit:10;}.cls-1,.cls-14,.cls-3{stroke-width:3px;}.cls-1{stroke-dasharray:12 6;}.cls-2,.cls-8{font-size:24px;}.cls-2,.cls-4,.cls-9{fill:#333;}.cls-10,.cls-2,.cls-4,.cls-8{font-family:Monaco, Monaco;}.cls-3{stroke:#1a1a1a;}.cls-4{font-size:18px;}.cls-5{fill:#f5e5c1;}.cls-5,.cls-6{stroke:#f5e5c1;}.cls-6{fill:#f3b73b;}.cls-7{font-size:10px;}.cls-10,.cls-8{fill:#dd4921;}.cls-10{font-size:21px;}.cls-11{fill:#d989bc;}.cls-12{fill:#1a1a1a;}.cls-13{fill:#666;}.cls-14{stroke:#4d4d4d;}.cls-15{fill:#4d4d4d;}.cls-16{stroke:#dd4921;stroke-dasharray:24;}</style>
    </defs>
    <title>expandSubs</title>
    <text x="-42.51" y="275.18"></text>
    <text class="cls-2" transform="translate(266.36 789.97)">[ b b ]</text>
    <text class="cls-2" transform="translate(439.32 789.97)">b</text>
    <text class="cls-2" transform="translate(236.46 789.97)">“</text>
    <text class="cls-2" transform="translate(755.56 789.97)">”</text>
    <text class="cls-2" transform="translate(570.3 789.97)">b</text>
    <text class="cls-2" transform="translate(703.32 789.97)">b</text>
    <text x="-42.51" y="275.18"></text>
    <line class="cls-3" x1="290.49" y1="525.68" x2="308.49" y2="525.68"/>
    <text class="cls-4" transform="translate(315.49 529.25)">4</text>
    <circle class="cls-5" cx="311.45" cy="535.93" r="38.97"/>
    <circle class="cls-6" cx="157.3" cy="780.46" r="38.97"/>
    <text class="cls-4" transform="translate(304.36 540.25)">O<tspan class="cls-7" x="10.8" y="0">1</tspan>
    </text>
    <circle class="cls-5" cx="177.85" cy="395.46" r="38.97"/>
    <text class="cls-4" transform="translate(157.72 399.06)">O<tspan class="cls-7" x="10.8" y="0">utput</tspan>
    </text>
    <text class="cls-4" transform="translate(125.89 786.46)">Length</text>
    <text class="cls-8" transform="translate(45.74 401.82)">len <tspan class="cls-9" x="57.61" y="0">*</tspan>
    </text>
    <text class="cls-10" transform="translate(45.74 786.46)">4</text>
    <line class="cls-3" x1="423.49" y1="525.68" x2="441.49" y2="525.68"/>
    <text class="cls-4" transform="translate(448.49 529.25)">4</text>
    <circle class="cls-5" cx="444.45" cy="535.93" r="38.97"/>
    <line class="cls-3" x1="556.49" y1="525.68" x2="574.49" y2="525.68"/>
    <text class="cls-4" transform="translate(581.49 529.25)">4</text>
    <circle class="cls-5" cx="577.45" cy="535.93" r="38.97"/>
    <line class="cls-3" x1="689.49" y1="525.68" x2="707.49" y2="525.68"/>
    <text class="cls-4" transform="translate(714.49 529.25)">4</text>
    <circle class="cls-5" cx="710.45" cy="535.93" r="38.97"/>
    <rect class="cls-11" x="266.36" y="613.65" width="90.13" height="67.62"/>
    <rect class="cls-11" x="399.38" y="613.65" width="90.13" height="67.62"/>
    <rect class="cls-11" x="532.4" y="613.65" width="90.13" height="67.62"/>
    <rect class="cls-11" x="665.42" y="613.65" width="90.13" height="67.62"/>
    <line class="cls-3" x1="310.99" y1="749.18" x2="310.99" y2="694.18"/>
    <polygon class="cls-12" points="311.15 681.27 318.47 699.18 311.15 694.93 303.83 699.18 311.15 681.27"/>
    <line class="cls-3" x1="310.99" y1="613.18" x2="310.99" y2="588.18"/>
    <polygon class="cls-12" points="311.15 575.27 318.47 593.18 311.15 588.93 303.83 593.18 311.15 575.27"/>
    <line class="cls-3" x1="443.99" y1="613.18" x2="443.99" y2="588.18"/>
    <polygon class="cls-12" points="444.15 575.27 451.47 593.18 444.15 588.93 436.83 593.18 444.15 575.27"/>
    <line class="cls-3" x1="576.99" y1="613.18" x2="576.99" y2="588.18"/>
    <polygon class="cls-12" points="577.15 575.27 584.47 593.18 577.15 588.93 569.83 593.18 577.15 575.27"/>
    <line class="cls-3" x1="532.49" y1="395.68" x2="502.49" y2="395.68"/>
    <polygon class="cls-12" points="489.51 395.46 507.42 388.14 503.17 395.46 507.42 402.78 489.51 395.46"/>
    <line class="cls-3" x1="399.49" y1="395.68" x2="369.49" y2="395.68"/>
    <polygon class="cls-12" points="356.51 395.46 374.42 388.14 370.17 395.46 374.42 402.78 356.51 395.46"/>
    <line class="cls-3" x1="266.49" y1="395.68" x2="236.49" y2="395.68"/>
    <polygon class="cls-12" points="223.51 395.46 241.42 388.14 237.17 395.46 241.42 402.78 223.51 395.46"/>
    <line class="cls-13" x1="53.49" y1="763.18" x2="53.49" y2="414.18"/>
    <line class="cls-14" x1="53.99" y1="763.18" x2="53.99" y2="427.18"/>
    <polygon class="cls-15" points="53.93 414.64 61.24 432.55 53.93 428.3 46.61 432.55 53.93 414.64"/>
    <line class="cls-3" x1="230.49" y1="780.68" x2="196.49" y2="780.68"/>
    <line class="cls-3" x1="710.99" y1="613.18" x2="710.99" y2="588.18"/>
    <polygon class="cls-12" points="711.15 575.27 718.47 593.18 711.15 588.93 703.83 593.18 711.15 575.27"/>
    <line class="cls-3" x1="443.99" y1="749.18" x2="443.99" y2="694.18"/>
    <polygon class="cls-12" points="444.15 681.27 451.47 699.18 444.15 694.93 436.83 699.18 444.15 681.27"/>
    <line class="cls-3" x1="576.99" y1="749.18" x2="576.99" y2="694.18"/>
    <polygon class="cls-12" points="577.15 681.27 584.47 699.18 577.15 694.93 569.83 699.18 577.15 681.27"/>
    <line class="cls-3" x1="709.99" y1="749.18" x2="709.99" y2="694.18"/>
    <polygon class="cls-12" points="710.15 681.27 717.47 699.18 710.15 694.93 702.83 699.18 710.15 681.27"/>
    <text class="cls-4" transform="translate(279.49 653.82)">SubDiv</text>
    <text class="cls-4" transform="translate(407.45 650.75)">SubDiv</text>
    <text class="cls-4" transform="translate(548.84 653.82)">SubDiv</text>
    <text class="cls-4" transform="translate(676.45 652.8)">SubDiv</text>
    <rect class="cls-11" x="266.36" y="361.65" width="90.13" height="67.62"/>
    <rect class="cls-11" x="399.38" y="361.65" width="90.13" height="67.62"/>
    <rect class="cls-11" x="532.4" y="361.65" width="90.13" height="67.62"/>
    <line class="cls-3" x1="310.99" y1="497.18" x2="310.99" y2="442.18"/>
    <polygon class="cls-12" points="311.15 429.27 318.47 447.18 311.15 442.93 303.83 447.18 311.15 429.27"/>
    <line class="cls-3" x1="443.99" y1="497.18" x2="443.99" y2="442.18"/>
    <polygon class="cls-12" points="444.15 429.27 451.47 447.18 444.15 442.93 436.83 447.18 444.15 429.27"/>
    <line class="cls-3" x1="576.99" y1="497.18" x2="576.99" y2="442.18"/>
    <polygon class="cls-12" points="577.15 429.27 584.47 447.18 577.15 442.93 569.83 447.18 577.15 429.27"/>
    <text class="cls-4" transform="translate(294.49 401.82)">LCM</text>
    <text class="cls-4" transform="translate(429.53 401.82)">LCM</text>
    <text class="cls-4" transform="translate(558.81 401.1)">LCM</text>
    <text class="cls-4" transform="translate(439.32 540.25)">O<tspan class="cls-7" x="10.8" y="0">2</tspan>
    </text>
    <text class="cls-4" transform="translate(572.32 540.25)">O<tspan class="cls-7" x="10.8" y="0">...</tspan>
    </text>
    <text class="cls-4" transform="translate(705.32 540.25)">O<tspan class="cls-7" x="10.8" y="0">n</tspan>
    </text>
    <path class="cls-3" d="M753,221.78s2-91.47-75.22-100.74" transform="translate(-42.51 275.18)"/>
    <polygon class="cls-12" points="622.54 395.46 640.91 389.42 636.16 396.42 639.89 404.02 622.54 395.46"/>
    <text x="-42.51" y="275.18"></text>
    <rect class="cls-16" x="0.5" y="337.77" width="220.01" height="126.46" rx="12" ry="12"/>
</svg>