<svg id="Layer_1" data-name="Layer 1" xmlns="http://www.w3.org/2000/svg" viewBox="0 0 863.14 520.38"><defs><style>.cls-1,.cls-18,.cls-2,.cls-6{fill:none;stroke-miterlimit:10;}.cls-1,.cls-2{stroke:#dd4921;stroke-width:7px;stroke-dasharray:12;}.cls-2{opacity:0.47;}.cls-3{fill:#f3b73b;}.cls-4{fill:#f5e5c1;}.cls-5,.cls-7{fill:#333;}.cls-6{stroke:#333;}.cls-18,.cls-6{stroke-width:3px;}.cls-20,.cls-7,.cls-8{font-size:18px;}.cls-7{font-family:MyriadPro-Regular, Myriad Pro;}.cls-14,.cls-8{fill:#605fa4;}.cls-20,.cls-8{font-family:MyriadPro-Bold, Myriad Pro;font-weight:700;}.cls-9{letter-spacing:0.01em;}.cls-10{letter-spacing:-0.01em;}.cls-11{letter-spacing:0.01em;}.cls-12{letter-spacing:0em;}.cls-13{letter-spacing:0em;}.cls-15{letter-spacing:-0.01em;}.cls-16{letter-spacing:0.1em;}.cls-17{letter-spacing:-0.01em;}.cls-18{stroke:#605fa4;stroke-dasharray:12.01 12.01;}.cls-19{fill:#fff0;}.cls-20{fill:#dd4921;}</style></defs><title>ListOfListDiagram</title><line class="cls-1" x1="24.38" y1="81.27" x2="24.38" y2="520.38"/><line class="cls-2" x1="226" y1="81.27" x2="226" y2="520.38"/><line class="cls-2" x1="428" y1="79.82" x2="428" y2="518.93"/><line class="cls-2" x1="630.38" y1="81.27" x2="630.38" y2="520.38"/><rect class="cls-3" x="27.88" y="165.9" width="162.94" height="337.38" rx="11.5" ry="11.5"/><path class="cls-4" d="M228.32,178a11,11,0,0,1,11,11V503.4a11,11,0,0,1-11,11H88.38a11,11,0,0,1-11-11V189a11,11,0,0,1,11-11H228.32m0-1H88.38a12,12,0,0,0-12,12V503.4a12,12,0,0,0,12,12H228.32a12,12,0,0,0,12-12V189a12,12,0,0,0-12-12Z" transform="translate(-49 -11.62)"/><rect class="cls-4" x="44.4" y="185.25" width="129.9" height="65.64" rx="5.43" ry="5.43"/><path class="cls-4" d="M217.87,197.36a4.94,4.94,0,0,1,4.93,4.93v54.77a4.94,4.94,0,0,1-4.93,4.93h-119a4.94,4.94,0,0,1-4.93-4.93V202.3a4.94,4.94,0,0,1,4.93-4.93h119m0-1h-119a6,6,0,0,0-5.93,5.93v54.77A6,6,0,0,0,98.83,263h119a6,6,0,0,0,5.93-5.93V202.3a6,6,0,0,0-5.93-5.93Z" transform="translate(-49 -11.62)"/><rect class="cls-4" x="44.4" y="264.84" width="129.9" height="65.64" rx="5.43" ry="5.43"/><path class="cls-4" d="M217.87,277a4.94,4.94,0,0,1,4.93,4.93v54.77a4.94,4.94,0,0,1-4.93,4.93h-119a4.94,4.94,0,0,1-4.93-4.93V281.89A4.94,4.94,0,0,1,98.83,277h119m0-1h-119a6,6,0,0,0-5.93,5.93v54.77a6,6,0,0,0,5.93,5.93h119a6,6,0,0,0,5.93-5.93V281.89a6,6,0,0,0-5.93-5.93Z" transform="translate(-49 -11.62)"/><rect class="cls-4" x="44.4" y="344.43" width="129.9" height="65.64" rx="5.43" ry="5.43"/><path class="cls-4" d="M217.87,356.55a4.94,4.94,0,0,1,4.93,4.93v54.77a4.94,4.94,0,0,1-4.93,4.93h-119a4.94,4.94,0,0,1-4.93-4.93V361.48a4.94,4.94,0,0,1,4.93-4.93h119m0-1h-119a6,6,0,0,0-5.93,5.93v54.77a6,6,0,0,0,5.93,5.93h119a6,6,0,0,0,5.93-5.93V361.48a6,6,0,0,0-5.93-5.93Z" transform="translate(-49 -11.62)"/><rect class="cls-4" x="44.4" y="423.11" width="129.9" height="65.64" rx="5.43" ry="5.43"/><path class="cls-4" d="M217.87,435.23a4.94,4.94,0,0,1,4.93,4.93v54.77a4.94,4.94,0,0,1-4.93,4.93h-119a4.94,4.94,0,0,1-4.93-4.93V440.16a4.94,4.94,0,0,1,4.93-4.93h119m0-1h-119a6,6,0,0,0-5.93,5.93v54.77a6,6,0,0,0,5.93,5.93h119a6,6,0,0,0,5.93-5.93V440.16a6,6,0,0,0-5.93-5.93Z" transform="translate(-49 -11.62)"/><line class="cls-5" x1="191" y1="340.38" x2="229" y2="340.38"/><line class="cls-6" x1="191" y1="339.88" x2="221" y2="339.88"/><polygon class="cls-5" points="229 339.88 217.06 344.76 219.89 339.88 217.06 335 229 339.88"/><rect class="cls-3" x="229.88" y="170.9" width="162.94" height="337.38" rx="11.5" ry="11.5"/><path class="cls-4" d="M430.32,183a11,11,0,0,1,11,11V508.4a11,11,0,0,1-11,11H290.38a11,11,0,0,1-11-11V194a11,11,0,0,1,11-11H430.32m0-1H290.38a12,12,0,0,0-12,12V508.4a12,12,0,0,0,12,12H430.32a12,12,0,0,0,12-12V194a12,12,0,0,0-12-12Z" transform="translate(-49 -11.62)"/><rect class="cls-4" x="246.4" y="190.25" width="129.9" height="65.64" rx="5.43" ry="5.43"/><path class="cls-4" d="M419.87,202.36a4.94,4.94,0,0,1,4.93,4.93v54.77a4.94,4.94,0,0,1-4.93,4.93h-119a4.94,4.94,0,0,1-4.93-4.93V207.3a4.94,4.94,0,0,1,4.93-4.93h119m0-1h-119a6,6,0,0,0-5.93,5.93v54.77a6,6,0,0,0,5.93,5.93h119a6,6,0,0,0,5.93-5.93V207.3a6,6,0,0,0-5.93-5.93Z" transform="translate(-49 -11.62)"/><line class="cls-5" x1="393" y1="345.38" x2="431" y2="345.38"/><line class="cls-6" x1="393" y1="344.88" x2="423" y2="344.88"/><polygon class="cls-5" points="431 344.88 419.06 349.76 421.89 344.88 419.06 340 431 344.88"/><rect class="cls-3" x="431.88" y="175.9" width="162.94" height="337.38" rx="11.5" ry="11.5"/><path class="cls-4" d="M632.32,188a11,11,0,0,1,11,11V513.4a11,11,0,0,1-11,11H492.38a11,11,0,0,1-11-11V199a11,11,0,0,1,11-11H632.32m0-1H492.38a12,12,0,0,0-12,12V513.4a12,12,0,0,0,12,12H632.32a12,12,0,0,0,12-12V199a12,12,0,0,0-12-12Z" transform="translate(-49 -11.62)"/><rect class="cls-4" x="448.4" y="195.25" width="129.9" height="65.64" rx="5.43" ry="5.43"/><path class="cls-4" d="M621.87,207.36a4.94,4.94,0,0,1,4.93,4.93v54.77a4.94,4.94,0,0,1-4.93,4.93h-119a4.94,4.94,0,0,1-4.93-4.93V212.3a4.94,4.94,0,0,1,4.93-4.93h119m0-1h-119a6,6,0,0,0-5.93,5.93v54.77a6,6,0,0,0,5.93,5.93h119a6,6,0,0,0,5.93-5.93V212.3a6,6,0,0,0-5.93-5.93Z" transform="translate(-49 -11.62)"/><rect class="cls-4" x="448.4" y="274.84" width="129.9" height="65.64" rx="5.43" ry="5.43"/><path class="cls-4" d="M621.87,287a4.94,4.94,0,0,1,4.93,4.93v54.77a4.94,4.94,0,0,1-4.93,4.93h-119a4.94,4.94,0,0,1-4.93-4.93V291.89a4.94,4.94,0,0,1,4.93-4.93h119m0-1h-119a6,6,0,0,0-5.93,5.93v54.77a6,6,0,0,0,5.93,5.93h119a6,6,0,0,0,5.93-5.93V291.89a6,6,0,0,0-5.93-5.93Z" transform="translate(-49 -11.62)"/><rect class="cls-4" x="448.4" y="354.43" width="129.9" height="65.64" rx="5.43" ry="5.43"/><path class="cls-4" d="M621.87,366.55a4.94,4.94,0,0,1,4.93,4.93v54.77a4.94,4.94,0,0,1-4.93,4.93h-119a4.94,4.94,0,0,1-4.93-4.93V371.48a4.94,4.94,0,0,1,4.93-4.93h119m0-1h-119a6,6,0,0,0-5.93,5.93v54.77a6,6,0,0,0,5.93,5.93h119a6,6,0,0,0,5.93-5.93V371.48a6,6,0,0,0-5.93-5.93Z" transform="translate(-49 -11.62)"/><rect class="cls-4" x="448.4" y="433.11" width="129.9" height="65.64" rx="5.43" ry="5.43"/><path class="cls-4" d="M621.87,445.23a4.94,4.94,0,0,1,4.93,4.93v54.77a4.94,4.94,0,0,1-4.93,4.93h-119a4.94,4.94,0,0,1-4.93-4.93V450.16a4.94,4.94,0,0,1,4.93-4.93h119m0-1h-119a6,6,0,0,0-5.93,5.93v54.77a6,6,0,0,0,5.93,5.93h119a6,6,0,0,0,5.93-5.93V450.16a6,6,0,0,0-5.93-5.93Z" transform="translate(-49 -11.62)"/><line class="cls-5" x1="595" y1="350.38" x2="633" y2="350.38"/><line class="cls-6" x1="595" y1="349.88" x2="625" y2="349.88"/><polygon class="cls-5" points="633 349.88 621.06 354.76 623.89 349.88 621.06 345 633 349.88"/><rect class="cls-3" x="633.88" y="174.9" width="162.94" height="337.38" rx="11.5" ry="11.5"/><path class="cls-4" d="M834.32,187a11,11,0,0,1,11,11V512.4a11,11,0,0,1-11,11H694.38a11,11,0,0,1-11-11V198a11,11,0,0,1,11-11H834.32m0-1H694.38a12,12,0,0,0-12,12V512.4a12,12,0,0,0,12,12H834.32a12,12,0,0,0,12-12V198a12,12,0,0,0-12-12Z" transform="translate(-49 -11.62)"/><rect class="cls-4" x="650.4" y="194.25" width="129.9" height="65.64" rx="5.43" ry="5.43"/><path class="cls-4" d="M823.87,206.36a4.94,4.94,0,0,1,4.93,4.93v54.77a4.94,4.94,0,0,1-4.93,4.93h-119a4.94,4.94,0,0,1-4.93-4.93V211.3a4.94,4.94,0,0,1,4.93-4.93h119m0-1h-119a6,6,0,0,0-5.93,5.93v54.77a6,6,0,0,0,5.93,5.93h119a6,6,0,0,0,5.93-5.93V211.3a6,6,0,0,0-5.93-5.93Z" transform="translate(-49 -11.62)"/><polyline class="cls-6" points="797 348.88 834.5 348.88 834.5 112.88 1.5 112.88 1.5 340.88 19 340.88"/><polygon class="cls-5" points="27.38 340.83 15.44 345.71 18.28 340.83 15.44 335.95 27.38 340.83"/><text class="cls-7" transform="translate(67 223.07)">Bass Drum</text><text class="cls-8" transform="translate(343.8 15.07)"><tspan class="cls-9">S</tspan><tspan x="9.85" y="0">equen</tspan><tspan class="cls-10" x="60.61" y="0">c</tspan><tspan x="68.53" y="0">e (1000ms)</tspan></text><text class="cls-7" transform="translate(85.35 302.66)"><tspan class="cls-11">H</tspan><tspan class="cls-12" x="11.92" y="0">i H</tspan><tspan class="cls-13" x="31.68" y="0">a</tspan><tspan x="40.28" y="0">t</tspan></text><text class="cls-7" transform="translate(97.61 376.79)">C2 <tspan class="cls-14"><tspan x="-23.51" y="21.6">[No</tspan><tspan class="cls-15" x="3.33" y="21.6">t</tspan><tspan x="9.18" y="21.6">e on]</tspan></tspan></text><text class="cls-7" transform="translate(97.32 448.79)">A3 <tspan class="cls-14"><tspan x="-24.4" y="21.6">[No</tspan><tspan class="cls-15" x="2.44" y="21.6">t</tspan><tspan x="8.29" y="21.6">e o</tspan><tspan class="cls-16" x="31" y="21.6">ff</tspan><tspan x="43.35" y="21.6">]</tspan></tspan></text><text class="cls-7" transform="translate(501.61 377.25)">C2 <tspan class="cls-14"><tspan x="-24.69" y="21.6">[No</tspan><tspan class="cls-15" x="2.15" y="21.6">t</tspan><tspan x="8" y="21.6">e o</tspan><tspan class="cls-16" x="30.72" y="21.6">ff</tspan><tspan x="43.06" y="21.6">]</tspan></tspan></text><text class="cls-7" transform="translate(501.32 455.93)">A3 <tspan class="cls-14"><tspan x="-23.22" y="21.6">[No</tspan><tspan class="cls-15" x="3.62" y="21.6">t</tspan><tspan x="9.47" y="21.6">e on]</tspan></tspan></text><text class="cls-7" transform="translate(287.7 228.07)"><tspan class="cls-11">H</tspan><tspan class="cls-12" x="11.92" y="0">i H</tspan><tspan class="cls-13" x="31.68" y="0">a</tspan><tspan x="40.28" y="0">t</tspan></text><text class="cls-7" transform="translate(486.05 314.89)"><tspan class="cls-11">H</tspan><tspan class="cls-12" x="11.92" y="0">i H</tspan><tspan class="cls-13" x="31.68" y="0">a</tspan><tspan x="40.28" y="0">t</tspan></text><text class="cls-7" transform="translate(694.05 228.62)"><tspan class="cls-11">H</tspan><tspan class="cls-12" x="11.92" y="0">i H</tspan><tspan class="cls-13" x="31.68" y="0">a</tspan><tspan x="40.28" y="0">t</tspan></text><text class="cls-7" transform="translate(474 228.07)">vSna<tspan class="cls-17" x="36.2" y="0">r</tspan><tspan x="41.9" y="0">e Drum</tspan></text><rect class="cls-18" x="19.47" y="27.53" width="798.05" height="65.14" rx="12" ry="12"/><rect class="cls-19" x="9" y="64.67" width="854.14" height="31.15"/><text class="cls-20" transform="translate(34.38 85.53)">0ms</text><text class="cls-20" transform="translate(234 88.67) scale(1.09 1)">250ms</text><text class="cls-20" transform="translate(434.07 85.53)">500ms</text><text class="cls-20" transform="translate(635.07 85.53)">750ms</text></svg>