<svg id="Layer_1" data-name="Layer 1" 
    xmlns="http://www.w3.org/2000/svg" viewBox="0 300 891.57 548.68">
    <defs>
        <style>.cls-1{fill:#dd4921;stroke:#f3b73b;}.cls-1,.cls-2{stroke-miterlimit:10;stroke-width:2px;}.cls-2{fill:#f3b73b;stroke:#f5e5c1;}.cls-3{font-size:25.29px;fill:#333;font-family:Monaco, Monaco;}</style>
    </defs>
    <title>subdividelist</title>
    <text x="-42.93" y="190.05"></text>
    <rect class="cls-1" x="1" y="379.96" width="871.14" height="167.72" rx="16.25" ry="16.25"/>
    <rect class="cls-2" x="15.84" y="434.51" width="38.99" height="78.04"/>
    <rect class="cls-2" x="68.97" y="434.51" width="38.99" height="78.04"/>
    <rect class="cls-2" x="122.11" y="434.51" width="38.99" height="78.04"/>
    <rect class="cls-2" x="175.24" y="434.51" width="38.99" height="78.04"/>
    <rect class="cls-2" x="233.57" y="434.43" width="38.99" height="78.04"/>
    <rect class="cls-2" x="286.71" y="434.43" width="38.99" height="78.04"/>
    <rect class="cls-2" x="339.84" y="434.43" width="38.99" height="78.04"/>
    <rect class="cls-2" x="392.97" y="434.43" width="38.99" height="78.04"/>
    <rect class="cls-2" x="448.3" y="434.43" width="38.99" height="78.04"/>
    <rect class="cls-2" x="501.43" y="434.43" width="38.99" height="78.04"/>
    <rect class="cls-2" x="554.57" y="434.43" width="38.99" height="78.04"/>
    <rect class="cls-2" x="607.7" y="434.43" width="38.99" height="78.04"/>
    <rect class="cls-2" x="660.84" y="434.43" width="38.99" height="78.04"/>
    <rect class="cls-2" x="713.97" y="434.43" width="38.99" height="78.04"/>
    <rect class="cls-2" x="767.1" y="434.43" width="38.99" height="78.04"/>
    <rect class="cls-2" x="820.24" y="434.43" width="38.99" height="78.04"/>
    <text class="cls-3" transform="translate(20.02 463.11)">bd</text>
    <text class="cls-3" transform="translate(72.97 462.82)">bd</text>
    <text class="cls-3" transform="translate(126.98 462.82)">bd</text>
    <text class="cls-3" transform="translate(237.38 461.32)">bd</text>
    <text class="cls-3" transform="translate(451.3 461.32)">bd</text>
    <text class="cls-3" transform="translate(663.84 461.32)">bd</text>
</svg>