<?xml version="1.0" encoding="utf-8"?>
<!-- Generator: Adobe Illustrator 24.0.0, SVG Export Plug-In . SVG Version: 6.00 Build 0)  -->
<svg version="1.1" id="Layer_1" xmlns="http://www.w3.org/2000/svg" xmlns:xlink="http://www.w3.org/1999/xlink" x="0px" y="0px"
	 viewBox="0 0 150.9 112.4" style="enable-background:new 0 0 150.9 112.4;" xml:space="preserve">
<style type="text/css">
	.st0{fill:#231F20;stroke:#231F20;stroke-miterlimit:10;}
	.st1{fill:none;stroke:#DD4A22;stroke-width:2.7801;stroke-linecap:round;stroke-miterlimit:10;}
	.st2{fill:none;stroke:#F3B83C;stroke-width:2.7801;stroke-linecap:round;stroke-miterlimit:10;}
	.st3{fill:none;stroke:#6060A6;stroke-width:2.7801;stroke-linecap:round;stroke-miterlimit:10;}
</style>
<rect class="st0" width="150.9" height="112.4"/>
<g>
	<g>
		<path class="st1" d="M88.3,11.6C61.3,40,114.6,69,87.6,97.5"/>
		<path class="st1" d="M80.6,11.5C53.6,40,106.9,69,79.9,97.4"/>
		<path class="st1" d="M72.8,11.5C45.9,40,99.1,69,72.2,97.4"/>
		<path class="st1" d="M65.1,11.5C38.2,40,91.4,69,64.5,97.4"/>
	</g>
	<g>
		<circle class="st2" cx="115.7" cy="32.8" r="21.4"/>
		<circle class="st2" cx="115.7" cy="32.8" r="15.7"/>
		<circle class="st2" cx="115.7" cy="32.8" r="10"/>
		<circle class="st2" cx="115.7" cy="32.8" r="4.2"/>
	</g>
	<g>
		<line class="st3" x1="13.9" y1="101" x2="58.1" y2="77.8"/>
		<line class="st3" x1="14.5" y1="84.4" x2="58.1" y2="77.8"/>
		<line class="st3" x1="15.2" y1="67.7" x2="58.1" y2="77.8"/>
		<line class="st3" x1="15.8" y1="51.1" x2="58.1" y2="77.8"/>
	</g>
</g>
</svg>
